<mxfile host="app.diagrams.net" modified="2023-05-10T16:34:41.967Z" agent="Mozilla/5.0 (Windows NT 10.0; Win64; x64; rv:109.0) Gecko/20100101 Firefox/112.0" etag="FTKCQT708n-cP0SwAKYh" version="21.2.9" type="github">
  <diagram name="Page-1" id="c37626ed-c26b-45fb-9056-f9ebc6bb27b6">
    <mxGraphModel dx="824" dy="796" grid="1" gridSize="10" guides="1" tooltips="1" connect="1" arrows="1" fold="1" page="1" pageScale="1" pageWidth="1100" pageHeight="850" background="none" math="0" shadow="0">
      <root>
        <mxCell id="0" />
        <mxCell id="1" parent="0" />
        <mxCell id="a0_n5fR20zIn7LnOnRit-1" value="class" style="swimlane;whiteSpace=wrap;html=1;" vertex="1" parent="1">
          <mxGeometry x="70" y="320" width="200" height="200" as="geometry" />
        </mxCell>
        <mxCell id="a0_n5fR20zIn7LnOnRit-21" style="edgeStyle=orthogonalEdgeStyle;rounded=0;orthogonalLoop=1;jettySize=auto;html=1;exitX=0.86;exitY=0.85;exitDx=0;exitDy=0;exitPerimeter=0;" edge="1" parent="a0_n5fR20zIn7LnOnRit-1" source="a0_n5fR20zIn7LnOnRit-3">
          <mxGeometry relative="1" as="geometry">
            <mxPoint x="80" y="180" as="targetPoint" />
          </mxGeometry>
        </mxCell>
        <mxCell id="a0_n5fR20zIn7LnOnRit-22" style="edgeStyle=orthogonalEdgeStyle;rounded=0;orthogonalLoop=1;jettySize=auto;html=1;exitX=0.5;exitY=0;exitDx=0;exitDy=0;exitPerimeter=0;" edge="1" parent="a0_n5fR20zIn7LnOnRit-1" source="a0_n5fR20zIn7LnOnRit-3" target="a0_n5fR20zIn7LnOnRit-4">
          <mxGeometry relative="1" as="geometry" />
        </mxCell>
        <mxCell id="a0_n5fR20zIn7LnOnRit-3" value="" style="shape=mxgraph.cisco.computers_and_peripherals.pc;sketch=0;html=1;pointerEvents=1;dashed=0;fillColor=#036897;strokeColor=#ffffff;strokeWidth=2;verticalLabelPosition=bottom;verticalAlign=top;align=center;outlineConnect=0;" vertex="1" parent="a0_n5fR20zIn7LnOnRit-1">
          <mxGeometry y="80" width="78" height="70" as="geometry" />
        </mxCell>
        <mxCell id="a0_n5fR20zIn7LnOnRit-4" value="" style="shape=mxgraph.cisco.routers.router;sketch=0;html=1;pointerEvents=1;dashed=0;fillColor=#036897;strokeColor=#ffffff;strokeWidth=2;verticalLabelPosition=bottom;verticalAlign=top;align=center;outlineConnect=0;" vertex="1" parent="a0_n5fR20zIn7LnOnRit-1">
          <mxGeometry x="78" y="60" width="78" height="53" as="geometry" />
        </mxCell>
        <mxCell id="a0_n5fR20zIn7LnOnRit-2" value="render" style="swimlane;whiteSpace=wrap;html=1;" vertex="1" parent="1">
          <mxGeometry x="300" y="40" width="209" height="213" as="geometry" />
        </mxCell>
        <mxCell id="a0_n5fR20zIn7LnOnRit-5" value="" style="shape=mxgraph.cisco.routers.router;sketch=0;html=1;pointerEvents=1;dashed=0;fillColor=#036897;strokeColor=#ffffff;strokeWidth=2;verticalLabelPosition=bottom;verticalAlign=top;align=center;outlineConnect=0;" vertex="1" parent="a0_n5fR20zIn7LnOnRit-2">
          <mxGeometry x="61" y="160" width="78" height="53" as="geometry" />
        </mxCell>
        <mxCell id="a0_n5fR20zIn7LnOnRit-14" value="" style="shape=mxgraph.cisco.servers.standard_host;sketch=0;html=1;pointerEvents=1;dashed=0;fillColor=#036897;strokeColor=#ffffff;strokeWidth=2;verticalLabelPosition=bottom;verticalAlign=top;align=center;outlineConnect=0;" vertex="1" parent="a0_n5fR20zIn7LnOnRit-2">
          <mxGeometry x="160" y="30" width="43" height="62" as="geometry" />
        </mxCell>
        <mxCell id="a0_n5fR20zIn7LnOnRit-15" value="" style="shape=mxgraph.cisco.servers.standard_host;sketch=0;html=1;pointerEvents=1;dashed=0;fillColor=#036897;strokeColor=#ffffff;strokeWidth=2;verticalLabelPosition=bottom;verticalAlign=top;align=center;outlineConnect=0;" vertex="1" parent="a0_n5fR20zIn7LnOnRit-2">
          <mxGeometry x="110" y="31" width="43" height="62" as="geometry" />
        </mxCell>
        <mxCell id="a0_n5fR20zIn7LnOnRit-16" value="" style="shape=mxgraph.cisco.servers.standard_host;sketch=0;html=1;pointerEvents=1;dashed=0;fillColor=#036897;strokeColor=#ffffff;strokeWidth=2;verticalLabelPosition=bottom;verticalAlign=top;align=center;outlineConnect=0;" vertex="1" parent="a0_n5fR20zIn7LnOnRit-2">
          <mxGeometry x="61" y="32" width="43" height="62" as="geometry" />
        </mxCell>
        <mxCell id="a0_n5fR20zIn7LnOnRit-19" value="" style="shape=mxgraph.cisco.servers.storage_server;sketch=0;html=1;pointerEvents=1;dashed=0;fillColor=#036897;strokeColor=#ffffff;strokeWidth=2;verticalLabelPosition=bottom;verticalAlign=top;align=center;outlineConnect=0;" vertex="1" parent="a0_n5fR20zIn7LnOnRit-2">
          <mxGeometry x="155" y="130" width="54" height="83" as="geometry" />
        </mxCell>
        <mxCell id="a0_n5fR20zIn7LnOnRit-6" value="" style="shape=mxgraph.cisco.routers.router;sketch=0;html=1;pointerEvents=1;dashed=0;fillColor=#036897;strokeColor=#ffffff;strokeWidth=2;verticalLabelPosition=bottom;verticalAlign=top;align=center;outlineConnect=0;" vertex="1" parent="1">
          <mxGeometry x="149" y="220" width="78" height="53" as="geometry" />
        </mxCell>
        <mxCell id="a0_n5fR20zIn7LnOnRit-7" value="" style="shape=mxgraph.cisco.security.firewall;sketch=0;html=1;pointerEvents=1;dashed=0;fillColor=#036897;strokeColor=#ffffff;strokeWidth=2;verticalLabelPosition=bottom;verticalAlign=top;align=center;outlineConnect=0;" vertex="1" parent="1">
          <mxGeometry x="170" y="114" width="29" height="67" as="geometry" />
        </mxCell>
        <mxCell id="a0_n5fR20zIn7LnOnRit-23" style="edgeStyle=orthogonalEdgeStyle;rounded=0;orthogonalLoop=1;jettySize=auto;html=1;" edge="1" parent="1">
          <mxGeometry relative="1" as="geometry">
            <mxPoint x="50" y="154.0000000000001" as="targetPoint" />
            <mxPoint x="60" y="150" as="sourcePoint" />
          </mxGeometry>
        </mxCell>
        <mxCell id="a0_n5fR20zIn7LnOnRit-8" value="" style="shape=mxgraph.cisco.security.firewall;sketch=0;html=1;pointerEvents=1;dashed=0;fillColor=#036897;strokeColor=#ffffff;strokeWidth=2;verticalLabelPosition=bottom;verticalAlign=top;align=center;outlineConnect=0;" vertex="1" parent="1">
          <mxGeometry x="46.5" y="120" width="29" height="67" as="geometry" />
        </mxCell>
        <mxCell id="a0_n5fR20zIn7LnOnRit-9" value="" style="shape=mxgraph.cisco.security.network_security;sketch=0;html=1;pointerEvents=1;dashed=0;fillColor=#036897;strokeColor=#ffffff;strokeWidth=2;verticalLabelPosition=bottom;verticalAlign=top;align=center;outlineConnect=0;" vertex="1" parent="1">
          <mxGeometry x="55" y="20" width="45" height="58" as="geometry" />
        </mxCell>
        <mxCell id="a0_n5fR20zIn7LnOnRit-24" style="edgeStyle=orthogonalEdgeStyle;rounded=0;orthogonalLoop=1;jettySize=auto;html=1;exitX=0.5;exitY=0;exitDx=0;exitDy=0;exitPerimeter=0;" edge="1" parent="1" source="a0_n5fR20zIn7LnOnRit-10" target="a0_n5fR20zIn7LnOnRit-8">
          <mxGeometry relative="1" as="geometry" />
        </mxCell>
        <mxCell id="a0_n5fR20zIn7LnOnRit-10" value="" style="shape=mxgraph.cisco.routers.router;sketch=0;html=1;pointerEvents=1;dashed=0;fillColor=#036897;strokeColor=#ffffff;strokeWidth=2;verticalLabelPosition=bottom;verticalAlign=top;align=center;outlineConnect=0;" vertex="1" parent="1">
          <mxGeometry x="22" y="220" width="78" height="53" as="geometry" />
        </mxCell>
        <mxCell id="a0_n5fR20zIn7LnOnRit-17" value="" style="shape=flexArrow;endArrow=classic;startArrow=classic;html=1;rounded=0;exitX=0.5;exitY=0;exitDx=0;exitDy=0;exitPerimeter=0;" edge="1" parent="1" source="a0_n5fR20zIn7LnOnRit-4" target="a0_n5fR20zIn7LnOnRit-6">
          <mxGeometry width="100" height="100" relative="1" as="geometry">
            <mxPoint x="210" y="440" as="sourcePoint" />
            <mxPoint x="310" y="340" as="targetPoint" />
          </mxGeometry>
        </mxCell>
        <mxCell id="a0_n5fR20zIn7LnOnRit-18" value="" style="shape=flexArrow;endArrow=classic;startArrow=classic;html=1;rounded=0;exitX=1;exitY=0.5;exitDx=0;exitDy=0;exitPerimeter=0;width=1.4285714285714286;endSize=14.871428571428572;" edge="1" parent="1" source="a0_n5fR20zIn7LnOnRit-6" target="a0_n5fR20zIn7LnOnRit-5">
          <mxGeometry width="100" height="100" relative="1" as="geometry">
            <mxPoint x="310" y="380" as="sourcePoint" />
            <mxPoint x="410" y="280" as="targetPoint" />
          </mxGeometry>
        </mxCell>
        <mxCell id="a0_n5fR20zIn7LnOnRit-26" value="" style="shape=flexArrow;endArrow=classic;html=1;rounded=0;exitX=0.5;exitY=1;exitDx=0;exitDy=0;exitPerimeter=0;entryX=0.12;entryY=0.1;entryDx=0;entryDy=0;entryPerimeter=0;" edge="1" parent="1" source="a0_n5fR20zIn7LnOnRit-10" target="a0_n5fR20zIn7LnOnRit-4">
          <mxGeometry width="50" height="50" relative="1" as="geometry">
            <mxPoint x="230" y="410" as="sourcePoint" />
            <mxPoint x="280" y="360" as="targetPoint" />
          </mxGeometry>
        </mxCell>
        <mxCell id="a0_n5fR20zIn7LnOnRit-27" value="" style="shape=flexArrow;endArrow=classic;html=1;rounded=0;exitX=1;exitY=0.5;exitDx=0;exitDy=0;exitPerimeter=0;entryX=0;entryY=0.5;entryDx=0;entryDy=0;entryPerimeter=0;" edge="1" parent="1" source="a0_n5fR20zIn7LnOnRit-10" target="a0_n5fR20zIn7LnOnRit-7">
          <mxGeometry width="50" height="50" relative="1" as="geometry">
            <mxPoint x="100" y="240" as="sourcePoint" />
            <mxPoint x="150" y="190" as="targetPoint" />
          </mxGeometry>
        </mxCell>
        <mxCell id="a0_n5fR20zIn7LnOnRit-28" value="" style="shape=flexArrow;endArrow=classic;html=1;rounded=0;exitX=0.5;exitY=1;exitDx=0;exitDy=0;exitPerimeter=0;entryX=0.5;entryY=0;entryDx=0;entryDy=0;entryPerimeter=0;" edge="1" parent="1" source="a0_n5fR20zIn7LnOnRit-7" target="a0_n5fR20zIn7LnOnRit-6">
          <mxGeometry width="50" height="50" relative="1" as="geometry">
            <mxPoint x="230" y="410" as="sourcePoint" />
            <mxPoint x="280" y="360" as="targetPoint" />
          </mxGeometry>
        </mxCell>
        <mxCell id="a0_n5fR20zIn7LnOnRit-29" value="" style="endArrow=classic;html=1;rounded=0;" edge="1" parent="1">
          <mxGeometry relative="1" as="geometry">
            <mxPoint x="210" y="390" as="sourcePoint" />
            <mxPoint x="310" y="390" as="targetPoint" />
          </mxGeometry>
        </mxCell>
        <mxCell id="a0_n5fR20zIn7LnOnRit-30" value="Label" style="edgeLabel;resizable=0;html=1;align=center;verticalAlign=middle;" connectable="0" vertex="1" parent="a0_n5fR20zIn7LnOnRit-29">
          <mxGeometry relative="1" as="geometry" />
        </mxCell>
      </root>
    </mxGraphModel>
  </diagram>
</mxfile>
